<svg width="37" height="37" viewBox="0 0 37 37" fill="none" xmlns="http://www.w3.org/2000/svg">
<path fill-rule="evenodd" clip-rule="evenodd" d="M18.5 36C28.165 36 36 28.165 36 18.5C36 8.83502 28.165 1 18.5 1C8.83502 1 1 8.83502 1 18.5C1 28.165 8.83502 36 18.5 36Z" stroke="#ED5E42" stroke-width="2"/>
<path fill-rule="evenodd" clip-rule="evenodd" d="M18.5001 33C26.6781 33 33.3078 26.5081 33.3078 18.5C33.3078 10.4919 26.6781 4 18.5001 4C10.322 4 3.69238 10.4919 3.69238 18.5C3.69238 26.5081 10.322 33 18.5001 33Z" stroke="#ED5E42"/>
<path fill-rule="evenodd" clip-rule="evenodd" d="M19.5092 10.0996C19.9663 10.0996 20.4062 10.2823 20.734 10.6129L24.8912 14.815C25.219 15.1369 25.4001 15.5806 25.4001 16.0417V25.7596C25.4001 26.7166 24.6238 27.4996 23.6751 27.4996H13.3165C12.3677 27.4996 11.6001 26.7166 11.6001 25.7596V11.8396C11.6001 10.8826 12.3763 10.0996 13.3251 10.0996H19.5092ZM15.9126 24.0196H21.0876C21.562 24.0196 21.9501 23.6281 21.9501 23.1496C21.9501 22.6711 21.562 22.2796 21.0876 22.2796H15.9126C15.4382 22.2796 15.0501 22.6711 15.0501 23.1496C15.0501 23.6281 15.4382 24.0196 15.9126 24.0196ZM21.0876 20.5396H15.9126C15.4382 20.5396 15.0501 20.1481 15.0501 19.6696C15.0501 19.1911 15.4382 18.7996 15.9126 18.7996H21.0876C21.562 18.7996 21.9501 19.1911 21.9501 19.6696C21.9501 20.1481 21.562 20.5396 21.0876 20.5396ZM19.3626 11.4046V15.3196C19.3626 15.7981 19.7507 16.1896 20.2251 16.1896H24.1063L19.3626 11.4046Z" fill="#ED5E42"/>
</svg>
