<svg width="73" height="13" viewBox="0 0 73 13" fill="none" xmlns="http://www.w3.org/2000/svg">
<path fill-rule="evenodd" clip-rule="evenodd" d="M21.6818 0L19.1025 1.45438V2.249H22.453V0H21.6818ZM66.7675 3.14597L66.7674 3.14597C66.5543 3.16367 66.4051 3.17606 66.3553 3.17606V12.5889H68.4933V9.37625C68.8054 9.42663 69.1209 9.45181 69.4364 9.45181C71.4007 9.45181 72.9035 8.18594 72.9035 6.25788C72.9035 4.06494 71.2472 3.02494 68.9934 3.02494C68.2242 3.02499 67.2981 3.1019 66.7675 3.14597ZM69.1864 7.69437C68.9503 7.69954 68.7154 7.66235 68.4933 7.58469V4.91563C68.6041 4.89775 68.9749 4.89775 69.1864 4.89775C70.1303 4.89775 70.7655 5.35112 70.7655 6.29525C70.7655 7.20362 70.111 7.69437 69.1864 7.69437ZM63.9698 9.28606H61.909V10.699H64.5647V12.5889H59.8088V3.13788H64.4129V5.02612H61.909V7.46606H63.9698V9.28606ZM54.1291 7.76831V3.13788H52.0305V12.5889H54.1291V9.53063H54.5142L56.9786 12.5889H57.8689V10.3968C57.6948 10.1638 57.4981 9.90523 57.3 9.64478L57.2997 9.64439C57.0156 9.27087 56.7285 8.89353 56.5012 8.58244C56.7529 7.86581 57.0944 6.82419 57.3092 6.10594L58.2146 3.13788H56.0153L54.5906 7.7675L54.1291 7.76831ZM27.1333 7.86337C27.1333 9.37706 28.3853 10.0758 29.1555 10.0758V10.075V5.65256C28.3836 5.65256 27.1333 6.3505 27.1333 7.86337ZM21.4318 12.5897V9.92469V9.92387L21.0903 9.92306L18.8172 12.5881H17.6811V3.13625H19.7956V4.576C19.7956 5.57408 19.7357 7.28063 19.6952 8.43332L19.6952 8.43351L19.6952 8.43359L19.684 8.75306H20.0305L21.4318 6.9615V3.13869H23.5463V12.5897H21.4318ZM1.3677 6.74944C1.3677 8.63931 1.11262 10.5105 0 10.907V12.9301C2.59947 12.6661 3.40834 10.4349 3.40834 7.10775V4.80675H4.79535V12.5946H6.90983V3.13706H1.3677V6.74944ZM33.236 7.86906C33.236 6.35537 31.9841 5.65662 31.2138 5.65662V10.0758C31.9841 10.0758 33.236 9.38194 33.236 7.86906ZM31.2138 11.7252C33.5246 11.7252 35.374 10.1368 35.374 7.86906C35.374 5.60056 33.5255 4.01213 31.2138 4.01213V2.72269H29.1555V4.00644C26.8455 4.00644 24.9962 5.59569 24.9962 7.86338C24.9962 10.1311 26.8439 11.7195 29.1555 11.7195V12.8538H31.2138V11.7252ZM37.3903 3.13788C37.8698 3.97572 38.3337 4.82194 38.7815 5.67613V5.67531L39.1859 5.66963C39.5301 4.99433 40.0284 4.10684 40.4329 3.38643L40.5729 3.13706H41.4967V5.72813L40.2834 7.69438L41.6671 9.98156V12.5905H40.7424L39.1842 9.7175H38.7798L37.2224 12.5897H36.2978V9.98156L37.6781 7.69356L36.4656 5.72731V3.13788H37.3903ZM48.2958 3.13788H45.0016L42.4214 12.5889H44.5778L45.0016 10.9241H48.2958L48.7195 12.5881H50.876L48.2958 3.13788ZM45.4639 9.18775H47.8318L46.8316 5.19837H46.4456L45.4639 9.18775ZM13.9413 3.13788H10.6479L8.06776 12.5889H10.2242L10.6488 10.9241H13.9413L14.3651 12.5881H16.5215L13.9413 3.13788ZM11.1094 9.18775H13.4782L12.4771 5.19837H12.092L11.1094 9.18775Z" fill="white"/>
</svg>
