<svg width="22" height="22" viewBox="0 0 22 22" fill="none" xmlns="http://www.w3.org/2000/svg">
<path fill-rule="evenodd" clip-rule="evenodd" d="M8.2298 17.4892L8.23764 11.8823C8.23764 11.3675 8.67493 11.3122 8.86253 11.3122C8.88904 11.3122 8.90528 11.3133 8.91956 11.3138L8.95643 11.3133C9.62361 11.3133 9.84071 12.0597 9.86386 12.4953V17.069C9.86386 18.2178 9.19911 18.3067 8.99573 18.3067C8.75445 18.3067 8.56628 18.2357 8.43663 18.0956C8.21851 17.8595 8.2298 17.4969 8.2298 17.4892V17.4892ZM11.0336 9.97537C11.0281 8.49877 10.3006 7.65217 9.03698 7.65217C7.87063 7.65217 6.88471 8.63631 6.83907 9.85056L6.83944 19.2842C6.83505 19.3395 6.73836 20.6457 7.43344 21.4321C7.76656 21.8088 8.22438 22 8.7943 22C9.46875 22 10.0078 21.7884 10.3963 21.3712C11.0708 20.6468 11.0463 19.5711 11.0449 19.5286L11.0336 9.97537Z" fill="white"/>
<mask id="mask0" mask-type="alpha" maskUnits="userSpaceOnUse" x="0" y="8" width="7" height="14">
<path fill-rule="evenodd" clip-rule="evenodd" d="M0.279297 8.68815H6.81104V22H0.279297V8.68815Z" fill="white"/>
</mask>
<g mask="url(#mask0)">
<path fill-rule="evenodd" clip-rule="evenodd" d="M6.75465 8.70045C6.7196 8.68237 6.6773 8.68438 6.64443 8.70552L3.74683 10.5734L1.16428 12.7815C1.14134 12.8012 1.12823 12.8294 1.12823 12.8591L1.1327 15.0331C1.1327 15.0723 1.15564 15.1076 1.19178 15.1251C1.22812 15.1428 1.27111 15.1382 1.30388 15.1156L2.15808 14.5014L2.16453 18.584C1.96138 18.2049 1.61744 17.9899 1.18264 17.9899H1.1751C0.372332 18.1737 0.279297 19.1026 0.279297 19.7853C0.279297 20.2782 0.388517 21.8938 1.79328 21.995C1.83876 21.9985 1.88314 22 1.92683 22C2.48186 22 2.85113 21.7387 3.06291 21.5198C3.42304 21.1472 3.56135 20.6679 3.53881 20.3648V13.7235L4.65365 12.9961V18.731L4.04341 19.0331C4.00786 19.0508 3.98542 19.086 3.98513 19.1247L3.97659 21.852C3.97629 21.8792 3.98751 21.9053 4.00767 21.9249C4.02772 21.9445 4.05523 21.9553 4.08372 21.9553H6.56262C6.62189 21.9553 6.66995 21.9089 6.66995 21.852V18.4213C6.66995 18.3851 6.65009 18.3514 6.61772 18.3328C6.58545 18.3146 6.54524 18.3132 6.51228 18.3302L5.94622 18.6218L5.94205 12.3329L6.73687 12.0304C6.77758 12.0153 6.80479 11.977 6.80479 11.9347L6.81104 8.7916C6.81104 8.75334 6.78969 8.71852 6.75465 8.70045" fill="white"/>
</g>
<path fill-rule="evenodd" clip-rule="evenodd" d="M16.6105 8.99083C15.2494 8.22651 13.9395 7.83886 12.0884 7.65235C12.0614 7.65081 12.0337 7.65938 12.0133 7.67921C11.9934 7.69847 11.9814 7.72688 11.9814 7.75566V13.5764C11.9814 13.6255 12.0143 13.6681 12.0595 13.6782L12.9957 13.8845C13.0247 13.891 13.0541 13.883 13.077 13.8637C13.0998 13.844 13.1131 13.814 13.1131 13.7831V10.7337L13.6981 10.983V17.828L13.2048 18.0114C13.1659 18.0257 13.1397 18.0652 13.1397 18.1093L13.1278 21.8961C13.1278 21.9235 13.1378 21.9497 13.1563 21.9695C13.1744 21.9893 13.1997 22 13.2252 22H15.668C15.7217 22 15.7655 21.9534 15.7655 21.8961V18.1939C15.7655 18.1523 15.7422 18.1147 15.7066 18.0986L15.2194 17.8746V11.2582L15.6481 11.5142V14.4901C15.6481 14.5332 15.6728 14.5722 15.7108 14.5874L16.5301 14.9204C16.5605 14.9326 16.5943 14.9276 16.6205 14.9087C16.6466 14.8894 16.6623 14.8576 16.6623 14.8231V9.08307C16.6623 9.04456 16.6423 9.00903 16.6105 8.99083" fill="white"/>
<path fill-rule="evenodd" clip-rule="evenodd" d="M20.3808 17.6225C20.3808 17.6324 20.3575 18.6665 19.7771 18.5948C19.0238 18.4935 19.0659 17.6423 19.0683 17.5998L19.0649 14.3385C19.0727 14.1541 19.1236 13.7249 19.4323 13.7249C19.5776 13.7249 19.7669 13.8172 19.9813 13.9926C20.5217 14.4284 20.3797 15.5059 20.3774 15.5311L20.3808 17.6225ZM19.0455 10.5217C18.9202 10.5217 18.7938 10.5361 18.6762 10.5632C17.6669 10.7199 17.5996 11.8562 17.5986 11.8726V19.6289C17.6165 20.781 18.8113 21.9995 19.9203 21.9995L19.9513 22C20.1415 22 21.8113 21.9526 21.8113 20.3172V14.0316C21.8209 13.167 21.3194 12.0139 20.6179 11.29C20.1309 10.7876 19.5873 10.5217 19.0455 10.5217V10.5217Z" fill="white"/>
<mask id="mask1" mask-type="alpha" maskUnits="userSpaceOnUse" x="0" y="0" width="6" height="12">
<path fill-rule="evenodd" clip-rule="evenodd" d="M0.794922 0.480365H5.81897V11.4177H0.794922V0.480365Z" fill="white"/>
</mask>
<g mask="url(#mask1)">
<path fill-rule="evenodd" clip-rule="evenodd" d="M1.56932 1.27685L3.10327 1.27637C3.19796 1.29091 3.26245 1.32975 3.30085 1.39517C3.36141 1.49886 3.35897 1.67811 3.29483 1.91026L1.56932 7.17897V1.27685ZM1.05464 10.9328L0.932721 11.4177L2.2354 10.449L1.96574 10.097V7.92506L3.19197 3.87572C3.35516 4.78298 3.81944 5.88681 4.53165 6.3951C4.47179 6.88398 3.97583 7.69454 3.47865 8.11034H3.16509L3.17408 9.51059L3.2384 9.51308H3.23866C3.30263 9.51308 4.9687 8.12497 5.48552 6.02904C5.70491 5.14904 5.68746 4.23977 5.6872 4.23212V0.898738L5.81897 0.509625H4.83623L5.00989 0.929443V4.70397C5.00989 5.0685 4.78186 5.45312 4.6952 5.58598C3.99372 5.15459 3.66375 3.45036 3.53791 2.79983L3.53005 2.75936L4.00131 1.20282C4.03884 0.953164 3.96283 0.789504 3.89249 0.69586C3.79344 0.563956 3.64333 0.485904 3.47839 0.480356H0.794922L1.05464 0.923417V10.9328Z" fill="white"/>
</g>
<path fill-rule="evenodd" clip-rule="evenodd" d="M9.07944 6.66714L9.17277 6.69565L9.1678 5.62739L9.11105 5.61415C7.8956 5.34046 7.27957 4.43764 7.27957 2.9315C7.27957 2.24322 7.34166 1.75393 7.46463 1.47619C7.60231 1.15834 7.87778 0.968533 8.21159 0.968533H8.21206C8.39176 0.972109 8.54136 1.0789 8.54277 1.08044L8.65682 1.16278V0.00560516L7.67744 0C6.36426 0 6.36426 2.25038 6.36426 2.98997C6.36426 4.8013 7.35405 6.14171 9.07944 6.66714" fill="white"/>
<path fill-rule="evenodd" clip-rule="evenodd" d="M12.8995 6.68495L12.7133 6.10705V3.23158C12.7102 2.94651 12.9365 2.55582 13.1504 2.45645C13.3429 2.74828 14.3233 4.2896 14.3197 5.38637L14.3156 6.58449L14.1022 6.85327L15.4985 7.17391L15.2581 6.75917L15.2611 5.36491C15.2919 4.47422 14.6582 3.2603 14.6321 3.21121L13.8623 1.62856L15.7259 0L13.8008 0.000496815L13.891 0.122813C13.9036 0.139605 14.1888 0.543913 13.599 1.1077C13.3652 1.33256 12.9856 1.58723 12.7946 1.71014L12.7999 0.299083L12.9688 0H11.5966L11.8746 0.280303V5.22312C11.4911 5.10418 9.89262 4.51575 9.68601 2.94393C9.61357 2.40002 9.70067 1.66721 10.059 1.25674C10.2717 1.01301 10.5509 0.902614 10.9145 0.934509C11.1434 0.952395 11.2248 1.10293 11.2279 1.10869L11.3729 1.07362L11.3645 0.0349758L10.2228 0.0297096C9.97298 0.0297096 9.65172 0.203396 9.38358 0.483203C9.11236 0.766188 8.66377 1.40629 8.70757 2.51448C8.77278 4.17921 9.29856 4.71845 10.1503 5.46C11.0067 6.20115 11.8787 6.40882 11.9153 6.41766L11.9831 6.43336L12.8995 6.68495Z" fill="white"/>
<path fill-rule="evenodd" clip-rule="evenodd" d="M21.6163 9.38825L20.0387 8.11552L20.0423 3.10915L21.3011 3.36828L21.2627 2.7304L20.077 2.53304V0.972296H21.1738L21.5087 1.3443V0H19.0024L19.2452 0.474009V8.31698L19.0475 8.52883L21.8052 11L21.811 9.38825H21.6163Z" fill="white"/>
<path fill-rule="evenodd" clip-rule="evenodd" d="M16.9446 6.60656C16.9258 6.60656 16.9062 6.6061 16.8869 6.60508C16.1578 6.56264 16.1771 5.93018 16.1784 5.89988V2.21591C16.1761 1.66332 16.3639 1.40342 16.8065 1.34635C16.8258 1.34394 16.8468 1.34292 16.8686 1.34292C17.1257 1.34292 17.5848 1.51461 17.5848 1.85641L17.5884 6.00764C17.5884 6.0321 17.5776 6.60656 16.9446 6.60656M18.5304 4.47586L18.5326 4.19392C18.5401 3.3741 18.5559 1.66721 17.8482 0.887426C17.6018 0.615761 17.288 0.478261 16.9147 0.478261H16.8838C15.3831 0.478261 15.2664 2.77092 15.2664 3.47361L15.2652 3.52041C15.2387 4.3203 15.2616 5.80769 15.713 6.78946C16.0729 7.56823 16.7623 7.65217 17.0417 7.65217C17.1454 7.65217 17.2107 7.64143 17.2119 7.64143C18.5175 7.44592 18.5259 5.51369 18.5304 4.47586" fill="white"/>
</svg>
