<svg width="37" height="37" viewBox="0 0 37 37" fill="none" xmlns="http://www.w3.org/2000/svg">
<path fill-rule="evenodd" clip-rule="evenodd" d="M18.5 36C28.165 36 36 28.165 36 18.5C36 8.83502 28.165 1 18.5 1C8.83502 1 1 8.83502 1 18.5C1 28.165 8.83502 36 18.5 36Z" stroke="#ED5E42" stroke-width="2"/>
<path fill-rule="evenodd" clip-rule="evenodd" d="M18.5001 33C26.6781 33 33.3078 26.5081 33.3078 18.5C33.3078 10.4919 26.6781 4 18.5001 4C10.322 4 3.69238 10.4919 3.69238 18.5C3.69238 26.5081 10.322 33 18.5001 33Z" stroke="#ED5E42"/>
<path fill-rule="evenodd" clip-rule="evenodd" d="M16.2044 22.3983V15.6009C16.2044 14.6663 16.9484 13.9016 17.8762 13.9016H25.3995V13.0519C25.3995 12.1172 24.6471 11.3525 23.7276 11.3525H12.0249C11.097 11.3525 10.353 12.1172 10.353 13.0519V24.9473C10.353 25.8819 11.097 26.6467 12.0249 26.6467H23.7276C24.6471 26.6467 25.3995 25.8819 25.3995 24.9473V24.0976H17.8762C16.9484 24.0976 16.2044 23.3329 16.2044 22.3983ZM18.7121 15.6009C18.2524 15.6009 17.8762 15.9833 17.8762 16.4506V21.5486C17.8762 22.0159 18.2524 22.3983 18.7121 22.3983H26.2353V15.6009H18.7121ZM19.9661 18.9996C19.9661 19.7048 20.5261 20.2741 21.2199 20.2741C21.9137 20.2741 22.4738 19.7048 22.4738 18.9996C22.4738 18.2944 21.9137 17.7251 21.2199 17.7251C20.5261 17.7251 19.9661 18.2944 19.9661 18.9996Z" fill="#ED5E42"/>
</svg>
