<svg width="37" height="37" viewBox="0 0 37 37" fill="none" xmlns="http://www.w3.org/2000/svg">
<path fill-rule="evenodd" clip-rule="evenodd" d="M18.5 36C28.165 36 36 28.165 36 18.5C36 8.83502 28.165 1 18.5 1C8.83502 1 1 8.83502 1 18.5C1 28.165 8.83502 36 18.5 36Z" stroke="#ED5E42" stroke-width="2"/>
<path fill-rule="evenodd" clip-rule="evenodd" d="M18.5001 33C26.6781 33 33.3078 26.5081 33.3078 18.5C33.3078 10.4919 26.6781 4 18.5001 4C10.322 4 3.69238 10.4919 3.69238 18.5C3.69238 26.5081 10.322 33 18.5001 33Z" stroke="#ED5E42"/>
<path fill-rule="evenodd" clip-rule="evenodd" d="M27 12.1455C27 13.3176 24.1445 14.2705 20.625 14.2705C17.1055 14.2705 14.25 13.3176 14.25 12.1455C14.25 10.9734 17.1055 10.0205 20.625 10.0205C24.1445 10.0205 27 10.9734 27 12.1455ZM10 24.8955V23.4777C11.3713 24.4439 13.8781 24.8955 16.375 24.8955C18.8719 24.8955 21.3787 24.4439 22.75 23.4777V24.8955C22.75 26.0676 19.8945 27.0205 16.375 27.0205C12.8555 27.0205 10 26.0676 10 24.8955ZM10 19.9947V21.708C10 22.8801 12.8555 23.833 16.375 23.833C19.8945 23.833 22.75 22.8801 22.75 21.708V19.9947C21.3787 21.1236 18.8686 21.708 16.375 21.708C13.8814 21.708 11.3713 21.1236 10 19.9947ZM27 18.5205C27 19.3074 25.715 19.9914 23.8125 20.36V18.2482C25.0975 18.0191 26.2297 17.6473 27 17.1027V18.5205ZM16.375 15.333C12.8555 15.333 10 16.5217 10 17.9893C10 19.4568 12.8555 20.6455 16.375 20.6455C19.8945 20.6455 22.75 19.4568 22.75 17.9893C22.75 16.5217 19.8945 15.333 16.375 15.333ZM27 15.333C27 16.1398 25.6486 16.8438 23.6564 17.2023C23.3643 16.4154 22.6437 15.7779 21.6643 15.3031C23.7959 15.1969 25.8213 14.7486 27 13.9152V15.333Z" fill="#ED5E42"/>
</svg>
