<svg xmlns="http://www.w3.org/2000/svg" xmlns:xlink="http://www.w3.org/1999/xlink"><symbol id="icon-fb" viewBox="0 0 40 40">
<path fill-rule="evenodd" clip-rule="evenodd" d="M20 40C31.0457 40 40 31.0457 40 20C40 8.9543 31.0457 0 20 0C8.9543 0 0 8.9543 0 20C0 31.0457 8.9543 40 20 40Z" fill="white"/>
<path d="M25.5481 9.00462L22.6699 9C19.4362 9 17.3465 11.144 17.3465 14.4623V16.9808H14.4526C14.2025 16.9808 14 17.1836 14 17.4336V21.0827C14 21.3327 14.2027 21.5352 14.4526 21.5352H17.3465V30.7429C17.3465 30.993 17.549 31.1955 17.7991 31.1955H21.5749C21.825 31.1955 22.0275 30.9927 22.0275 30.7429V21.5352H25.4112C25.6613 21.5352 25.8638 21.3327 25.8638 21.0827L25.8652 17.4336C25.8652 17.3136 25.8174 17.1986 25.7326 17.1136C25.6479 17.0286 25.5324 16.9808 25.4123 16.9808H22.0275V14.8459C22.0275 13.8197 22.272 13.2988 23.6087 13.2988L25.5477 13.2981C25.7975 13.2981 26 13.0954 26 12.8455V9.4572C26 9.20759 25.7977 9.00508 25.5481 9.00462Z" fill="#FF9E27"/>
</symbol><symbol id="icon-invoice" viewBox="0 0 37 37">
<path fill-rule="evenodd" clip-rule="evenodd" d="M18.5 36C28.165 36 36 28.165 36 18.5C36 8.83502 28.165 1 18.5 1C8.83502 1 1 8.83502 1 18.5C1 28.165 8.83502 36 18.5 36Z" stroke="#ED5E42" stroke-width="2"/>
<path fill-rule="evenodd" clip-rule="evenodd" d="M18.5001 33C26.6781 33 33.3078 26.5081 33.3078 18.5C33.3078 10.4919 26.6781 4 18.5001 4C10.322 4 3.69238 10.4919 3.69238 18.5C3.69238 26.5081 10.322 33 18.5001 33Z" stroke="#ED5E42"/>
<path fill-rule="evenodd" clip-rule="evenodd" d="M19.5092 10.0996C19.9663 10.0996 20.4062 10.2823 20.734 10.6129L24.8912 14.815C25.219 15.1369 25.4001 15.5806 25.4001 16.0417V25.7596C25.4001 26.7166 24.6238 27.4996 23.6751 27.4996H13.3165C12.3677 27.4996 11.6001 26.7166 11.6001 25.7596V11.8396C11.6001 10.8826 12.3763 10.0996 13.3251 10.0996H19.5092ZM15.9126 24.0196H21.0876C21.562 24.0196 21.9501 23.6281 21.9501 23.1496C21.9501 22.6711 21.562 22.2796 21.0876 22.2796H15.9126C15.4382 22.2796 15.0501 22.6711 15.0501 23.1496C15.0501 23.6281 15.4382 24.0196 15.9126 24.0196ZM21.0876 20.5396H15.9126C15.4382 20.5396 15.0501 20.1481 15.0501 19.6696C15.0501 19.1911 15.4382 18.7996 15.9126 18.7996H21.0876C21.562 18.7996 21.9501 19.1911 21.9501 19.6696C21.9501 20.1481 21.562 20.5396 21.0876 20.5396ZM19.3626 11.4046V15.3196C19.3626 15.7981 19.7507 16.1896 20.2251 16.1896H24.1063L19.3626 11.4046Z" fill="#ED5E42"/>
</symbol><symbol id="icon-kegs" viewBox="0 0 37 37">
<path fill-rule="evenodd" clip-rule="evenodd" d="M18.5 36C28.165 36 36 28.165 36 18.5C36 8.83502 28.165 1 18.5 1C8.83502 1 1 8.83502 1 18.5C1 28.165 8.83502 36 18.5 36Z" stroke="#ED5E42" stroke-width="2"/>
<path fill-rule="evenodd" clip-rule="evenodd" d="M18.5001 33C26.6781 33 33.3078 26.5081 33.3078 18.5C33.3078 10.4919 26.6781 4 18.5001 4C10.322 4 3.69238 10.4919 3.69238 18.5C3.69238 26.5081 10.322 33 18.5001 33Z" stroke="#ED5E42"/>
<path fill-rule="evenodd" clip-rule="evenodd" d="M27 12.1455C27 13.3176 24.1445 14.2705 20.625 14.2705C17.1055 14.2705 14.25 13.3176 14.25 12.1455C14.25 10.9734 17.1055 10.0205 20.625 10.0205C24.1445 10.0205 27 10.9734 27 12.1455ZM10 24.8955V23.4777C11.3713 24.4439 13.8781 24.8955 16.375 24.8955C18.8719 24.8955 21.3787 24.4439 22.75 23.4777V24.8955C22.75 26.0676 19.8945 27.0205 16.375 27.0205C12.8555 27.0205 10 26.0676 10 24.8955ZM10 19.9947V21.708C10 22.8801 12.8555 23.833 16.375 23.833C19.8945 23.833 22.75 22.8801 22.75 21.708V19.9947C21.3787 21.1236 18.8686 21.708 16.375 21.708C13.8814 21.708 11.3713 21.1236 10 19.9947ZM27 18.5205C27 19.3074 25.715 19.9914 23.8125 20.36V18.2482C25.0975 18.0191 26.2297 17.6473 27 17.1027V18.5205ZM16.375 15.333C12.8555 15.333 10 16.5217 10 17.9893C10 19.4568 12.8555 20.6455 16.375 20.6455C19.8945 20.6455 22.75 19.4568 22.75 17.9893C22.75 16.5217 19.8945 15.333 16.375 15.333ZM27 15.333C27 16.1398 25.6486 16.8438 23.6564 17.2023C23.3643 16.4154 22.6437 15.7779 21.6643 15.3031C23.7959 15.1969 25.8213 14.7486 27 13.9152V15.333Z" fill="#ED5E42"/>
</symbol><symbol id="icon-mobile" viewBox="0 0 62 62">
<path fill-rule="evenodd" clip-rule="evenodd" d="M31 61C47.5685 61 61 47.5685 61 31C61 14.4315 47.5685 1 31 1C14.4315 1 1 14.4315 1 31C1 47.5685 14.4315 61 31 61Z" stroke="#ED5E42" stroke-width="2"/>
<path fill-rule="evenodd" clip-rule="evenodd" d="M31 58C45.9117 58 58 45.9117 58 31C58 16.0883 45.9117 4 31 4C16.0883 4 4 16.0883 4 31C4 45.9117 16.0883 58 31 58Z" stroke="#ED5E42"/>
<path fill-rule="evenodd" clip-rule="evenodd" d="M38.1408 14.5145L23.8449 14.5C22.2723 14.5 21 15.8091 21 17.4091V43.5909C21 45.1909 22.2723 46.5 23.8449 46.5H38.1408C39.7134 46.5 41 45.1909 41 43.5909V17.4091C41 15.8091 39.7134 14.5145 38.1408 14.5145ZM38.1408 40.6818H23.8449V20.3182H38.1408V40.6818ZM32.1365 34.82V32.2745C28.9628 32.2745 26.8613 33.2636 25.2745 35.4455C25.9178 32.3327 27.6905 29.2345 32.1365 28.6091V26.1364L36.7112 30.4709L32.1365 34.82Z" fill="#ED5E42"/>
</symbol><symbol id="icon-purse" viewBox="0 0 37 37">
<path fill-rule="evenodd" clip-rule="evenodd" d="M18.5 36C28.165 36 36 28.165 36 18.5C36 8.83502 28.165 1 18.5 1C8.83502 1 1 8.83502 1 18.5C1 28.165 8.83502 36 18.5 36Z" stroke="#ED5E42" stroke-width="2"/>
<path fill-rule="evenodd" clip-rule="evenodd" d="M18.5001 33C26.6781 33 33.3078 26.5081 33.3078 18.5C33.3078 10.4919 26.6781 4 18.5001 4C10.322 4 3.69238 10.4919 3.69238 18.5C3.69238 26.5081 10.322 33 18.5001 33Z" stroke="#ED5E42"/>
<path fill-rule="evenodd" clip-rule="evenodd" d="M16.2044 22.3983V15.6009C16.2044 14.6663 16.9484 13.9016 17.8762 13.9016H25.3995V13.0519C25.3995 12.1172 24.6471 11.3525 23.7276 11.3525H12.0249C11.097 11.3525 10.353 12.1172 10.353 13.0519V24.9473C10.353 25.8819 11.097 26.6467 12.0249 26.6467H23.7276C24.6471 26.6467 25.3995 25.8819 25.3995 24.9473V24.0976H17.8762C16.9484 24.0976 16.2044 23.3329 16.2044 22.3983ZM18.7121 15.6009C18.2524 15.6009 17.8762 15.9833 17.8762 16.4506V21.5486C17.8762 22.0159 18.2524 22.3983 18.7121 22.3983H26.2353V15.6009H18.7121ZM19.9661 18.9996C19.9661 19.7048 20.5261 20.2741 21.2199 20.2741C21.9137 20.2741 22.4738 19.7048 22.4738 18.9996C22.4738 18.2944 21.9137 17.7251 21.2199 17.7251C20.5261 17.7251 19.9661 18.2944 19.9661 18.9996Z" fill="#ED5E42"/>
</symbol><symbol id="icon-shop" viewBox="0 0 62 62">
<path fill-rule="evenodd" clip-rule="evenodd" d="M31 58C45.9117 58 58 45.9117 58 31C58 16.0883 45.9117 4 31 4C16.0883 4 4 16.0883 4 31C4 45.9117 16.0883 58 31 58Z" stroke="#ED5E42"/>
<path fill-rule="evenodd" clip-rule="evenodd" d="M42.1578 19.5894L45.3189 24.6479C46.9555 27.2651 45.504 30.8979 42.4452 31.3081C42.226 31.3374 42.0069 31.3521 41.7779 31.3521C40.3411 31.3521 39.0649 30.7173 38.1833 29.7358C37.3066 30.7173 36.0305 31.3521 34.5888 31.3521C33.1519 31.3521 31.8709 30.7173 30.9942 29.7358C30.1174 30.7173 28.8413 31.3521 27.3996 31.3521C25.9627 31.3521 24.6817 30.7173 23.805 29.7358C22.9283 30.7173 21.6522 31.3521 20.2104 31.3521C19.9864 31.3521 19.7623 31.3374 19.5431 31.3081C16.4941 30.8931 15.0475 27.2603 16.6792 24.6479L19.8402 19.5894C20.1228 19.1353 20.6244 18.8569 21.1602 18.8569H40.8379C41.3737 18.8569 41.8753 19.1353 42.1578 19.5894ZM40.3508 32.7339C40.8184 32.8462 41.3006 32.9194 41.7877 32.9194C42.0848 32.9194 42.377 32.8999 42.6741 32.8608C42.9469 32.8267 43.2099 32.7632 43.4729 32.6851V42.2944C43.4729 43.1587 42.7764 43.8569 41.9143 43.8569H20.0935C19.2314 43.8569 18.5349 43.1587 18.5349 42.2944V32.6851C18.793 32.7583 19.0609 32.8218 19.3337 32.8608C19.6211 32.8999 19.9182 32.9194 20.2104 32.9194C20.6975 32.9194 21.1797 32.8413 21.6473 32.7339V37.6069H40.3508V32.7339Z" fill="#ED5E42"/>
<path fill-rule="evenodd" clip-rule="evenodd" d="M31 61C47.5685 61 61 47.5685 61 31C61 14.4315 47.5685 1 31 1C14.4315 1 1 14.4315 1 31C1 47.5685 14.4315 61 31 61Z" stroke="#ED5E42" stroke-width="2"/>
</symbol><symbol id="icon-sms" viewBox="0 0 62 62">
<path fill-rule="evenodd" clip-rule="evenodd" d="M43.1875 23.5176C43.9123 24.0649 44.4039 24.4475 44.9225 24.8541C45.6027 25.3873 46 26.2035 46 27.0672V27.6912L40.375 31.7547V20.9313H21.625V31.7547L16 27.6912V27.0672C16.0001 26.2031 16.3974 25.3871 17.0775 24.8541C17.5961 24.4475 18.0877 24.0643 18.8125 23.5176V20.9313C18.8125 19.378 20.0717 18.1188 21.625 18.1188H26.1689C26.2835 18.0359 26.393 17.9564 26.5059 17.8744C26.5686 17.8288 26.6323 17.7825 26.6986 17.7344C26.8639 17.6139 27.0565 17.4649 27.269 17.3005C28.3236 16.4846 29.8686 15.2893 31 15.3063C32.1321 15.2893 33.6787 16.486 34.7331 17.3019C34.9448 17.4658 35.1367 17.6142 35.3014 17.7344C35.3675 17.7825 35.4312 17.8287 35.4938 17.8741C35.6068 17.9563 35.7164 18.0358 35.8311 18.1188H40.375C41.9283 18.1188 43.1875 19.378 43.1875 20.9313V23.5176ZM36.625 27.025C36.625 27.543 36.2055 27.9625 35.6875 27.9625H26.3125C25.7945 27.9625 25.375 27.543 25.375 27.025V26.0875C25.375 25.5696 25.7945 25.15 26.3125 25.15H35.6875C36.2055 25.15 36.625 25.5696 36.625 26.0875V27.025ZM26.3125 33.5875C25.7945 33.5875 25.375 33.1679 25.375 32.65V31.7125C25.375 31.1945 25.7945 30.775 26.3125 30.775H35.6875C36.2055 30.775 36.625 31.1945 36.625 31.7125V32.65C36.625 33.1679 36.2055 33.5875 35.6875 33.5875H26.3125ZM31 39.7474C30.0379 39.7474 29.0758 39.4509 28.2543 38.8574L16 30.0051V42.4937C16 44.047 17.2592 45.3062 18.8125 45.3062H43.1875C44.7408 45.3062 46 44.047 46 42.4937V30.0051L33.7457 38.8574C32.9242 39.4503 31.9621 39.7474 31 39.7474Z" fill="#ED5E42"/>
<path fill-rule="evenodd" clip-rule="evenodd" d="M31 61C47.5685 61 61 47.5685 61 31C61 14.4315 47.5685 1 31 1C14.4315 1 1 14.4315 1 31C1 47.5685 14.4315 61 31 61Z" stroke="#ED5E42" stroke-width="2"/>
<path fill-rule="evenodd" clip-rule="evenodd" d="M31 58C45.9117 58 58 45.9117 58 31C58 16.0883 45.9117 4 31 4C16.0883 4 4 16.0883 4 31C4 45.9117 16.0883 58 31 58Z" stroke="#ED5E42"/>
</symbol><symbol id="icon-twitter" viewBox="0 0 40 40">
<path fill-rule="evenodd" clip-rule="evenodd" d="M20 40C31.0457 40 40 31.0457 40 20C40 8.9543 31.0457 0 20 0C8.9543 0 0 8.9543 0 20C0 31.0457 8.9543 40 20 40Z" fill="white"/>
<path d="M29 13.8393C28.3007 14.1514 27.5503 14.3631 26.762 14.4576C27.567 13.972 28.1832 13.2019 28.4752 12.287C27.7201 12.7367 26.8866 13.0632 25.9985 13.2401C25.2874 12.476 24.2758 12 23.1538 12C21.0013 12 19.256 13.758 19.256 15.9249C19.256 16.2323 19.2904 16.5324 19.3569 16.8195C16.118 16.6556 13.246 15.0926 11.3238 12.7175C10.9878 13.2963 10.7966 13.9708 10.7966 14.6908C10.7966 16.0529 11.4853 17.2548 12.5301 17.9579C11.8913 17.9364 11.2905 17.7594 10.7646 17.4652V17.5143C10.7646 19.4157 12.1086 21.0027 13.8907 21.3638C13.5642 21.4523 13.2199 21.5014 12.8637 21.5014C12.612 21.5014 12.3686 21.4763 12.13 21.4284C12.6262 22.9891 14.0652 24.124 15.7702 24.1551C14.4368 25.2075 12.7557 25.8329 10.9296 25.8329C10.615 25.8329 10.3051 25.8138 10 25.7791C11.7251 26.8949 13.7732 27.5455 15.9744 27.5455C23.1444 27.5455 27.0636 21.5636 27.0636 16.3758L27.0505 15.8675C27.8163 15.3174 28.4788 14.6262 29 13.8393Z" fill="#FF9E27"/>
</symbol><symbol id="icon-vk" viewBox="0 0 40 40">
<path fill-rule="evenodd" clip-rule="evenodd" d="M20 40C31.0457 40 40 31.0457 40 20C40 8.9543 31.0457 0 20 0C8.9543 0 0 8.9543 0 20C0 31.0457 8.9543 40 20 40Z" fill="white"/>
<path d="M29.8992 24.329C29.8762 24.2793 29.8548 24.2382 29.8349 24.2051C29.5052 23.6105 28.8753 22.8807 27.9454 22.0153L27.9257 21.9955L27.9159 21.9858L27.906 21.9759H27.896C27.474 21.5729 27.2067 21.302 27.0948 21.1633C26.89 20.8991 26.8441 20.6316 26.9561 20.3606C27.0351 20.1559 27.3321 19.7235 27.8464 19.0629C28.1169 18.7127 28.3311 18.4321 28.4893 18.2207C29.6304 16.7015 30.125 15.7306 29.9733 15.3078L29.9143 15.209C29.8747 15.1496 29.7725 15.0951 29.6078 15.0455C29.4428 14.996 29.2318 14.9878 28.9745 15.0208L26.1256 15.0405C26.0794 15.0241 26.0135 15.0257 25.9276 15.0455C25.8419 15.0654 25.799 15.0753 25.799 15.0753L25.7494 15.1001L25.7101 15.1299C25.6771 15.1497 25.6408 15.1843 25.6012 15.2339C25.5618 15.2833 25.5288 15.3412 25.5025 15.4073C25.1923 16.2065 24.8397 16.9496 24.4439 17.6365C24.1999 18.0461 23.9757 18.401 23.7711 18.7016C23.5667 19.0021 23.3952 19.2234 23.2568 19.3653C23.1182 19.5074 22.9931 19.6212 22.8808 19.7071C22.7686 19.7931 22.683 19.8294 22.6237 19.8161C22.5643 19.8029 22.5084 19.7897 22.4554 19.7765C22.3631 19.717 22.2889 19.6361 22.2329 19.5337C22.1767 19.4314 22.1389 19.3025 22.1191 19.1473C22.0994 18.992 22.0878 18.8584 22.0845 18.746C22.0814 18.6338 22.0828 18.4751 22.0895 18.2704C22.0964 18.0655 22.0994 17.9269 22.0994 17.8543C22.0994 17.6032 22.1043 17.3308 22.1141 17.0369C22.1241 16.7429 22.1322 16.51 22.1389 16.3385C22.1457 16.1667 22.1488 15.985 22.1488 15.7935C22.1488 15.6019 22.1371 15.4517 22.1141 15.3426C22.0914 15.2337 22.0565 15.128 22.0105 15.0256C21.9643 14.9232 21.8966 14.844 21.8077 14.7878C21.7187 14.7316 21.608 14.6871 21.4763 14.654C21.1268 14.5747 20.6816 14.5319 20.1407 14.5252C18.9141 14.512 18.126 14.5914 17.7764 14.7631C17.638 14.8357 17.5126 14.9348 17.4006 15.0602C17.2818 15.2056 17.2653 15.2849 17.351 15.298C17.7467 15.3574 18.0269 15.4994 18.1918 15.724L18.2512 15.8429C18.2975 15.9288 18.3436 16.0808 18.3898 16.2987C18.4359 16.5167 18.4657 16.7577 18.4788 17.0218C18.5117 17.5041 18.5117 17.9169 18.4788 18.2603C18.4458 18.6039 18.4146 18.8713 18.3848 19.0629C18.355 19.2544 18.3106 19.4097 18.2512 19.5285C18.1918 19.6474 18.1523 19.7201 18.1325 19.7465C18.1127 19.7728 18.0962 19.7895 18.0831 19.796C17.9974 19.8289 17.9082 19.8456 17.8159 19.8456C17.7235 19.8456 17.6115 19.7993 17.4796 19.7068C17.3478 19.6143 17.2109 19.4872 17.0691 19.3254C16.9273 19.1635 16.7674 18.9373 16.5892 18.6467C16.4112 18.3561 16.2266 18.0126 16.0353 17.6163L15.8771 17.3289C15.7781 17.144 15.643 16.8748 15.4715 16.5215C15.3 16.168 15.1483 15.8262 15.0165 15.4959C14.9638 15.3572 14.8846 15.2516 14.7791 15.1789L14.7296 15.1491C14.6966 15.1227 14.6438 15.0947 14.5713 15.0649C14.4987 15.0351 14.423 15.0137 14.3438 15.0005L11.6332 15.0203C11.3563 15.0203 11.1683 15.0831 11.0694 15.2086L11.0298 15.268C11.01 15.3011 11 15.3539 11 15.4266C11 15.4993 11.0198 15.5884 11.0594 15.694C11.4551 16.6255 11.8854 17.5237 12.3503 18.389C12.8152 19.2543 13.2192 19.9513 13.5621 20.4794C13.905 21.0079 14.2545 21.5066 14.6107 21.9755C14.9668 22.4445 15.2026 22.745 15.3179 22.8771C15.4334 23.0094 15.5241 23.1083 15.5901 23.1743L15.8374 23.4121C15.9957 23.5706 16.2281 23.7605 16.5348 23.9817C16.8415 24.2031 17.1811 24.421 17.5538 24.6359C17.9264 24.8504 18.36 25.0254 18.8547 25.1608C19.3493 25.2963 19.8307 25.3507 20.299 25.3244H21.4366C21.6674 25.3045 21.8422 25.2318 21.961 25.1064L22.0003 25.0567C22.0268 25.0173 22.0516 24.9561 22.0745 24.8737C22.0976 24.7911 22.1091 24.7001 22.1091 24.6012C22.1023 24.3172 22.1239 24.0613 22.1733 23.8335C22.2226 23.6057 22.2788 23.4339 22.3416 23.3183C22.4045 23.2027 22.4753 23.1052 22.5542 23.0261C22.6333 22.9469 22.6896 22.8989 22.7227 22.8824C22.7555 22.8658 22.7818 22.8545 22.8016 22.8477C22.9598 22.7949 23.1461 22.8461 23.3607 23.0014C23.575 23.1566 23.7761 23.3483 23.9642 23.5761C24.1521 23.8041 24.378 24.0599 24.6417 24.3439C24.9056 24.6279 25.1364 24.8391 25.3342 24.978L25.532 25.0969C25.664 25.1762 25.8355 25.2489 26.0466 25.3149C26.2573 25.3809 26.4419 25.3975 26.6004 25.3645L29.1328 25.3249C29.3833 25.3249 29.5782 25.2834 29.7164 25.2009C29.855 25.1184 29.9372 25.0274 29.9638 24.9285C29.9903 24.8294 29.9917 24.7171 29.9688 24.5915C29.9454 24.4661 29.9222 24.3785 29.8992 24.329Z" fill="#FF9E27"/>
</symbol><symbol id="icon-website" viewBox="0 0 62 62">
<path fill-rule="evenodd" clip-rule="evenodd" d="M19 19.5H43C44.65 19.5 46 20.7938 46 22.375V39.625C46 41.2062 44.65 42.5 43 42.5H19C17.35 42.5 16 41.2062 16 39.625L16.015 22.375C16.015 20.7938 17.35 19.5 19 19.5ZM19 39.625H35.5V33.875H19V39.625ZM35.5 32.4375H19V26.6875H35.5V32.4375ZM37 39.625H43V26.6875H37V39.625Z" fill="#ED5E42"/>
<path fill-rule="evenodd" clip-rule="evenodd" d="M31 61C47.5685 61 61 47.5685 61 31C61 14.4315 47.5685 1 31 1C14.4315 1 1 14.4315 1 31C1 47.5685 14.4315 61 31 61Z" stroke="#ED5E42" stroke-width="2"/>
<path fill-rule="evenodd" clip-rule="evenodd" d="M31 58C45.9117 58 58 45.9117 58 31C58 16.0883 45.9117 4 31 4C16.0883 4 4 16.0883 4 31C4 45.9117 16.0883 58 31 58Z" stroke="#ED5E42"/>
</symbol></svg>